<?xml version="1.0" encoding="UTF-8" standalone="no"?>
<svg
   xmlns:dc="http://purl.org/dc/elements/1.1/"
   xmlns:cc="http://creativecommons.org/ns#"
   xmlns:rdf="http://www.w3.org/1999/02/22-rdf-syntax-ns#"
   xmlns:svg="http://www.w3.org/2000/svg"
   xmlns="http://www.w3.org/2000/svg"
   id="svg8"
   version="1.1"
   viewBox="0 0 11.885 11.885"
   height="11.885mm"
   width="11.885mm">
  <defs
     id="defs2" />
  <metadata
     id="metadata5">
    <rdf:RDF>
      <cc:Work
         rdf:about="">
        <dc:format>image/svg+xml</dc:format>
        <dc:type
           rdf:resource="http://purl.org/dc/dcmitype/StillImage" />
        <dc:title></dc:title>
      </cc:Work>
    </rdf:RDF>
  </metadata>
  <g
     transform="translate(0,-285.115)"
     id="layer1">
    <g
       transform="matrix(0.99999177,0,0,0.97867412,-84.169532,109.22492)"
       id="g844">
      <circle
         style="fill:#000000;fill-opacity:1;stroke:none;stroke-width:0.35736132;stroke-linecap:round;stroke-linejoin:bevel;stroke-miterlimit:4;stroke-dasharray:none;stroke-opacity:1;paint-order:stroke fill markers"
         id="path832"
         cx="94.912247"
         cy="180.86601"
         r="1.1435" />
      <path
         style="fill:#000000;fill-opacity:1;stroke:none;stroke-width:0.26458332px;stroke-linecap:butt;stroke-linejoin:miter;stroke-opacity:1"
         d="m 89.512498,182.33437 -2.896873,-1.90312 c 0,0 -0.571875,0.0563 -0.318751,0.45937 0.253124,0.40313 2.71875,1.74375 2.71875,1.74375 z"
         id="path834" />
      <path
         style="fill:#000000;fill-opacity:1;stroke:none;stroke-width:0.26458332px;stroke-linecap:butt;stroke-linejoin:miter;stroke-opacity:1"
         d="m 89.774999,182.45625 2.024999,-1.29375 c 0,0 1.181251,-0.3375 1.368751,0.80625 l 0.02813,2.39062 1.528125,0.975 c 0,0 -0.01875,0.675 -0.440625,0.64688 -0.421875,-0.0281 -2.1,-1.33125 -2.1,-1.33125 l -0.103129,-0.99375 c 0,0 -0.08438,-0.16875 -0.178125,-0.009 z"
         id="path836" />
      <path
         style="fill:#000000;fill-opacity:1;stroke:none;stroke-width:0.26458332px;stroke-linecap:butt;stroke-linejoin:miter;stroke-opacity:1"
         d="m 89.128125,182.83125 c 0,0 -1.228125,0.91875 -0.506251,1.81875 0.721875,0.9 2.268751,1.84687 2.268751,1.84687 l -1.293751,1.74375 -0.06562,0.60938 -4.96875,-2.90625 c 0,0 -0.487501,0.0375 -0.375,0.61875 L 93.2625,191.55 c 0,0 1.8,1.05 2.60625,-0.675 0,0 -0.20625,-0.16875 -0.43125,-0.0563 -0.225,0.1125 -0.525,0.84375 -1.2375,0.50625 -0.7125,-0.3375 -3.75,-1.95 -3.75,-1.95 l 2.26875,-2.5875 c 0,0 0.075,-0.43125 -0.15,-0.7125 -0.225,-0.28125 -1.85625,-1.425 -1.85625,-1.425 l 0.54375,-0.6 z"
         id="path838" />
    </g>
  </g>
</svg>
