<svg id="txt" xmlns="http://www.w3.org/2000/svg" viewBox="0 0 209.57 209.57"><title>prl_ski-alpin_black_none_250</title><path d="M203.62,58.13A17.46,17.46,0,1,0,186.14,40.7,17.43,17.43,0,0,0,203.62,58.13ZM192.28,215.35l-62.81-35.78,36.67-36.67a8.59,8.59,0,0,0-1-13.09l0,0L98.81,81.71l-4.34,6.15c-6.15,8.7-4.4,21.83,5.24,27.92s33.43,18.38,44.73,24.09l-30.75,30.75L28.08,121.88,20.23,135l165.91,94.32a47.73,47.73,0,0,0,17.49,3.49c8.74,0,20.08-5.24,26.18-14.84C229.8,217.95,215.86,225.8,192.28,215.35ZM49.91,52a26,26,0,0,0,7.88,1.75c3.5,0,9.6-5.25,9.6-5.25l67.12,43.93,6.22,5L160,85.26V101.8a8.7,8.7,0,0,0,3.49,7L198.37,135a8.6,8.6,0,0,0,5.25,1.75A8.71,8.71,0,0,0,208.86,121L177.39,97.45V89.6C178.64,79.2,180,67,180,66c0-12.24-11.34-16.64-26.23-16.64-18.59,0-33.17,9.21-40.93,15.43L72.64,40.7a26,26,0,0,0,0-8.74,12.18,12.18,0,0,0-5.25-6.15l-7,9.64L49.06,31.06l8.73,9.64Z" transform="translate(-20.23 -23.21)" fill="#57a75f"/></svg>