<?xml version="1.0" encoding="UTF-8" standalone="no"?>
<svg
   xmlns:dc="http://purl.org/dc/elements/1.1/"
   xmlns:cc="http://creativecommons.org/ns#"
   xmlns:rdf="http://www.w3.org/1999/02/22-rdf-syntax-ns#"
   xmlns:svg="http://www.w3.org/2000/svg"
   xmlns="http://www.w3.org/2000/svg"
   id="svg8"
   version="1.1"
   viewBox="0 0 11.885 11.885"
   height="11.885mm"
   width="11.885mm">
  <defs
     id="defs2" />
  <metadata
     id="metadata5">
    <rdf:RDF>
      <cc:Work
         rdf:about="">
        <dc:format>image/svg+xml</dc:format>
        <dc:type
           rdf:resource="http://purl.org/dc/dcmitype/StillImage" />
        <dc:title></dc:title>
      </cc:Work>
    </rdf:RDF>
  </metadata>
  <g
     transform="translate(0,-285.115)"
     id="layer1">
    <path
       id="path887"
       d="m 2.7400076,296.6289 c 0,-0.25164 0.1891702,-0.45751 0.4203789,-0.45751 0.2312087,0 1.1959112,-0.3096 2.1437834,-0.688 1.5773545,-0.62968 1.6793631,-0.78033 1.2037123,-1.77775 -0.3949822,-0.82825 -0.8709954,-1.07485 -1.9836396,-1.02769 -1.1826659,0.0501 -1.6448622,-0.22962 -2.4055198,-1.45603 -0.7336086,-1.1828 -0.8139664,-1.63754 -0.3638321,-2.05882 0.4465469,-0.41793 0.8183722,-0.25502 1.6374201,0.71745 0.6595013,0.78303 1.5240301,1.25816 2.2892833,1.25816 0.9759147,0 1.3214973,0.30613 1.6749995,1.48378 0.5377577,1.79149 1.6812438,2.10693 3.0157214,0.83193 1.038561,-0.99227 1.470871,-1.17009 1.458689,-0.60002 -0.02028,0.94929 -1.121757,1.64061 -4.5815463,2.87551 -4.1949803,1.49732 -4.5094501,1.56001 -4.5094501,0.89899 z m -0.6952483,-2.55968 c -1.07305452,-1.02523 -2.2937786,-3.38802 -1.75040269,-3.38802 0.24865557,0 0.93110699,0.7405 1.51655889,1.64556 0.9213235,1.42428 1.2485298,1.61039 2.4333533,1.38399 1.442842,-0.27571 1.9045873,0.33627 0.6114409,0.81038 -1.2249257,0.4491 -1.9979909,0.32482 -2.8109504,-0.45191 z m 2.6106852,-6.36187 c 0,-1.38398 0.2154868,-2.51633 0.4788598,-2.51633 0.2633731,0 0.4788599,1.13235 0.4788599,2.51633 0,1.38399 -0.2154868,2.51634 -0.4788599,2.51634 -0.263373,0 -0.4788598,-1.13235 -0.4788598,-2.51634 z m -4.61419642,0.003 c -0.16586103,-0.41295 -0.07195583,-0.97022 0.20869004,-1.23835 0.72959441,-0.69707 2.11196598,-0.0599 1.92138628,0.88552 -0.2122787,1.05315 -1.74671963,1.30732 -2.13007632,0.35283 z"
       style="fill:#000000;stroke-width:0.46806571" />
  </g>
</svg>
