<svg id="Calque_1" data-name="Calque 1" xmlns="http://www.w3.org/2000/svg" viewBox="0 0 250 250"><defs><style>.cls-1{fill:none;}</style></defs><title>prl_tk_black_none</title><rect class="cls-1" width="250" height="250"/><path d="M73.65,54.36A16.68,16.68,0,1,0,57,37.68,16.71,16.71,0,0,0,73.65,54.36Z" fill="#3d4754"/><path d="M220.84,153.33a4.81,4.81,0,0,0-9.56,1.07c1.24,11.1-10.37,18.15-12.32,19.26L41.23,224.93a4.81,4.81,0,0,0,3,9.14l158.17-51.4,0.69-.3C203.88,182,222.93,172.08,220.84,153.33Z" fill="#3d4754"/><path d="M76,59.84l-1.37-.3v0a17.59,17.59,0,0,0-2.92-.31c-11.24,0-11.95,6-11.95,6V126c0,14.75,40.05,29.5,44.62,34.76s7,32,10.88,35.84,15.82-1.41,17.92-6.69-2.82-4.55-4.9-9.13-1.07-8.42-3.87-20.37-5.64-15.48-9.49-18.26-8.42-8.45-18.27-14.07A16.6,16.6,0,0,1,93.86,126l63.8-102.51a4.81,4.81,0,1,0-8.15-5.09L117.95,69.16l-41.79-9.3Zm36.13,18.62L88.32,116.77a23,23,0,0,1-.79-6.22V75.08a19.18,19.18,0,0,0-.23-2.15Z" fill="#3d4754"/><path d="M69.37,142.22a2.07,2.07,0,0,0-2.62,3.22l11.49,9.38a2.08,2.08,0,0,0,2.62-3.22Z" fill="#3d4754"/></svg>