<svg id="Calque_1" data-name="Calque 1" xmlns="http://www.w3.org/2000/svg" viewBox="0 0 250 250"><defs><style>.cls-1{fill:none;}</style></defs><title>prl_ts_black_none</title><rect class="cls-1" width="250" height="250"/><path d="M63.31,88.07a16.45,16.45,0,1,0-20.4-11.16A16.45,16.45,0,0,0,63.31,88.07Z" fill="#3d4754"/><polygon points="111.64 16.48 104.54 16.48 104.54 123.03 111.64 121.07 111.64 16.48" fill="#3d4754"/><path d="M56.61,110.87l20,38.47a14.37,14.37,0,0,0,17.22,7.36l35.46-10.65s0.31,24,.35,35.28c0,12.16,17.74,12.09,17.7.1V133c0-7.21-7.88-13.36-13.5-11.75l-34,9.68L82,97C72.84,81,48,94.37,56.61,110.87Z" fill="#3d4754"/><path d="M219.26,158.81l-6,2a9.46,9.46,0,0,1-6,11.95l-158.41,54,2,6,158.39-53.92A15.79,15.79,0,0,0,219.26,158.81Z" fill="#3d4754"/><path d="M88,178.66a33.58,33.58,0,0,0,9.76-1.43l20.33-5.93c10.34-3,6.36-16.59-3.87-13.48l-19.34,5.66a31.58,31.58,0,0,1-6.71,1.05,19.6,19.6,0,0,1-17.36-10.46L55.43,124c-4.87-9.6-17.47-3.2-12.6,6.4L58,160.4A33.76,33.76,0,0,0,88,178.66Z" fill="#3d4754"/></svg>