<svg id="Calque_1" data-name="Calque 1" xmlns="http://www.w3.org/2000/svg" viewBox="0 0 499 382"><defs><style>.cls-1{fill:#fff;}.cls-2{fill:#777272;}.cls-3{fill:#528140;}.cls-4{fill:#c96736;}.cls-5{fill:#e4ab3b;}.cls-6{fill:#2b5893;}.cls-7{fill:#777373;}.cls-8{fill:#797575;}.cls-9{fill:#787474;}.cls-10{fill:#7a7676;}.cls-11{fill:#797474;}.cls-12{fill:#7a7575;}.cls-13{fill:#7c7778;}.cls-14{fill:#817c7c;}.cls-15{fill:#faf9fa;}.cls-16{fill:#f8f8f8;}.cls-17{fill:#fefefe;}.cls-18{fill:#f6f5f6;}.cls-19{fill:#f0eff0;}</style></defs><path class="cls-1" d="M499.46,382.29H.46V.29h499Zm-110.78-73.8h84.86c-.11-2.88.12-5.45-.16-8H454.55c-.34-.7-.66-1.4-1-2.09q-11.67-23.34-23.34-46.67c-5.3-10.6-10.37-21.32-15.93-31.79s-10.58-21.24-16.36-31.64c-7.46-13.44-13.75-27.52-20.62-41.29q-12.46-25-25.06-50l-32.17,64.29C296.72,114.7,273.6,68.49,250.45,22.24L181.1,160.86c-5.59-11.17-10.73-21.59-16-32s-10.25-20.82-15.68-31.08c-.67.36-1.08.44-1.19.67-10.13,20.4-20.19,40.83-30.36,61.21q-23.22,46.49-46.56,92.9-12,23.94-24,47.91H27.5v8H388.68Zm-136,34.94c.41-.52.81-1,1.18-1.47,2-2.54,1.49-7.45-1.09-9.08-1.11-.7-2.25-1.61-3.86-1.5-2.6.17-5.22.05-8,.05,0,8.95,0,17.55,0,26.15a.84.84,0,0,0,.16.43,2.89,2.89,0,0,0,.35.35c2.66,0,5.32-.1,8,0a7.25,7.25,0,0,0,4.74-1.81,31.74,31.74,0,0,0,2.72-2.42v-7.51Zm-89.63,12.33c2.95,3.2,6.15,2.36,9.13,2.65,2.77.26,4.43-1.49,5.81-3.16a10,10,0,0,0,2.25-9.27,11.53,11.53,0,0,0-3.72-6.36,11.35,11.35,0,0,0-6.49-2.08,9,9,0,0,0-6.67,2.86c-.25-2.19-1.42-2.38-3-1.72V365.2h2.73Zm-28,2.47L122.4,330.81c-.83.79-1.47,1.14-1.68,1.66-3.52,8.63-8.44,16.64-11.58,25.42,1.9,1,3.24.41,4-1,1.3-2.43,2.33-5,3.47-7.51,2.92,0,5.74.08,8.56,0a2.9,2.9,0,0,1,3.05,1.85c1.11,2.37,2.25,4.72,3.36,7Zm165.17-17c-3.61-4.32-7.72-3.92-11.6-2.7-1.85.59-3.39,2.36-4.73,4.13a6.05,6.05,0,0,0-1.05,4.07c0,1,0,2,0,3-.15,4,4.09,8.58,8.54,8.62,2,0,4,0,5.84,0l2.58-2.29c1.58,2.11,1.58,2.11,3.81,2.08V338.58C301.78,338,300.69,338.5,300.28,341.24Zm-88.1,7.09c-.57-1.85.21-3.42-.84-5.25-3.48-6.1-10.7-7.57-16.4-2.94a7.29,7.29,0,0,0-2.74,4.26c-.44,4.51-.81,9.22,3.72,12.36a5.54,5.54,0,0,1,1.2,1.6,44.9,44.9,0,0,1,6.11.05c2.36.36,3.94-.78,5.69-2,1.32-.92,1.6-2.62,3-3.42,0,0,0-.22-.09-.41l-1.63-1.37-4,4.21c-3.59-.2-6.92.74-9.27-1.87-1.18-1.31-2.38-3-1.49-5.22Zm207.62,7.08c-3.66-.18-7,.75-9.35-1.82-1.23-1.32-2.29-3-1.58-5.21h16.91c-.64-1.87.23-3.41-.83-5.27-3.41-6-10.7-7.78-16.37-2.95-1.75,1.48-3.56,3.73-3,6.68a8.65,8.65,0,0,1,0,2.49,7.24,7.24,0,0,0,2.43,6c1,1,2,2.2,2.74,3.05,2.64,0,4.8,0,7,0,2.51,0,4.15-1.07,5.93-3.54a17.23,17.23,0,0,1,1.95-2l-1.76-1.56Zm-25.13,2.83c0-4.83.08-9.31,0-13.78-.1-4.21-4.79-8.1-8.47-7a37.41,37.41,0,0,0-5.48,2.75c0-2.49.1-4.95,0-7.4-.08-1.6-.94-2.6-2.72-2.39v27.73h2.76v-13.3c3.79-3.79,3.79-3.79,7.23-4.46l3.84,3.84v14ZM331,344.15v14.11h2.82c0-4.7,0-9.31,0-13.92a5.61,5.61,0,0,0-.72-2.18c-2.65-5.53-7.28-6.34-12.32-2.18-.17.14-.46.13-.69.19-.24-2.3-1.59-2-3.22-1.47.08,6.6-.11,13.14.11,19.46h3V344.82c2.22-2.18,4.07-4.54,7.44-4.42Zm35-1.06c-.75-2.3-2.3-3.23-4.09-4.06-5.81-2.69-9.32-2-13.64,2.32-2.27,2.3-2.61,5-2.51,7.95a9.26,9.26,0,0,0,9.11,9.05c1.16,0,2.33-.06,3.48,0,3.38.23,5.77-1.25,7.72-4.31-.65-.78-1.24-1.48-2.06-2.44-1.05,1.05-1.84,1.5-2.12,2.17-1.09,2.61-4.11.66-5.49,2.44-1.7-.62-3.62-.94-5-2a8,8,0,0,1-2.52-3.84c-.8-2.34.72-6.86,2.33-7.94,4-2.69,6.44-2.93,9.79-.25C362.63,343.58,364,343.52,366,343.09ZM70.17,355.38V331.52H67.5v26.6H80.3c0-.89,0-1.55,0-2.21,0-.13-.2-.25-.45-.53ZM148,358.27V330.52h-2.66v27.75Zm121.09-27.75v27.75h2.67V330.52ZM93.3,340.31l1.37.16c2.51-3,1.44-6.56,1.48-9.9H92.48v5.76c.53,0,1-.05,1.14.11a1.27,1.27,0,0,1,.18.92C93.67,338.35,93.47,339.33,93.3,340.31Z" transform="translate(-0.46 -0.29)"/><path class="cls-2" d="M47.36,300.51q12-24,24-47.91,23.27-46.46,46.56-92.9c10.17-20.38,20.23-40.81,30.36-61.21.11-.23.52-.31,1.19-.67,5.43,10.26,10.44,20.73,15.68,31.08s10.4,20.79,16,32L250.45,22.24c23.15,46.25,46.27,92.46,69.62,139.12l32.17-64.29q12.54,25,25.06,50c6.87,13.77,13.16,27.85,20.62,41.29,5.78,10.4,10.8,21.15,16.36,31.64s10.63,21.19,15.93,31.79q11.66,23.34,23.34,46.67c.34.69.66,1.39,1,2.09h-6a6.84,6.84,0,0,0-.38-1.84c-2.07-4.13-4.24-8.22-6.32-12.35C429,260.73,416.34,235,403.16,209.59c-16.56-32-32.31-64.4-48.42-96.63-.7-1.39-1.5-2.72-2.59-4.69-10,20-19.73,39.38-29.46,58.82a6.82,6.82,0,0,1,1,1.17q21,41.91,42,83.84,12.06,24.16,24,48.41h-6a16.17,16.17,0,0,0-.72-2.2q-18.63-37.59-37.3-75.17c-8.39-16.79-16.94-33.49-25.44-50.28a12.13,12.13,0,0,0-1.39,1.82c-7.34,14.22-14.37,28.59-21.83,42.76-13.81,26.26-26.73,53-40,79.53a22.71,22.71,0,0,0-1.08,3.54h-9c.38-1.61-.86-2.67-1.45-3.89-4.86-9.95-9.63-20-14.83-29.75s-10.11-19.77-15.3-29.59c-11.23-21.22-21.58-42.9-32.3-64.39a14.48,14.48,0,0,0-1.22-1.68c-.55,1.19-.82,1.87-1.15,2.51-5.86,11.54-11.8,23-17.56,34.62s-11.64,23.45-17.85,35c-9.47,17.62-18.07,35.72-27,53.63a21.71,21.71,0,0,0-1.09,3.54h-6c.67-1.39,1.31-2.79,2-4.16Q145,233,176.78,169.68c1.7-3.4,1.73-3.39.18-6.45q-13.38-26.35-26.78-52.7c-.29-.57-.58-1.15-1.21-2.37-2.5,5.26-4.58,9.84-6.84,14.34Q98.29,209.74,54.43,297a21.69,21.69,0,0,0-1.08,3.54ZM250.43,34A41.68,41.68,0,0,0,248,37.73q-30.91,61.74-61.8,123.5a7.39,7.39,0,0,0,.2,7.49c10.1,18.89,19,38.38,29.21,57.22,8.3,15.28,15.63,31.08,23.39,46.64,4.14,8.29,8.29,16.56,12.57,25.12a10.67,10.67,0,0,1,.41-1.29c7.42-14.87,14.81-29.77,22.3-44.61q16.33-32.38,32.8-64.7c2.79-5.5,5.51-11,8.51-16.41a7.25,7.25,0,0,0,.12-7.5q-31.45-62.76-62.83-125.56A38.58,38.58,0,0,0,250.43,34Z" transform="translate(-0.46 -0.29)"/><path class="cls-3" d="M247,300.51h5v8H111.23v-8H247Z" transform="translate(-0.46 -0.29)"/><path class="cls-4" d="M252,308.49v-8H388.68v8Z" transform="translate(-0.46 -0.29)"/><path class="cls-5" d="M388.68,308.49v-8h84.7c.28,2.53.05,5.1.16,8Z" transform="translate(-0.46 -0.29)"/><path class="cls-6" d="M111.23,300.51v8H27.5v-8h83.73Z" transform="translate(-0.46 -0.29)"/><path class="cls-7" d="M252.71,343.43l4.2,3.22v7.51a31.74,31.74,0,0,1-2.72,2.42,7.25,7.25,0,0,1-4.74,1.81c-2.64-.13-5.3,0-8,0a2.89,2.89,0,0,1-.35-.35.84.84,0,0,1-.16-.43c0-8.6,0-17.2,0-26.15,2.75,0,5.37.12,8-.05,1.61-.11,2.75.8,3.86,1.5,2.58,1.63,3,6.54,1.09,9.08C253.52,342.44,253.12,342.91,252.71,343.43Zm-8.57,2.05v9.79c3,.17,5.78.39,8.29-1.77a4,4,0,0,0,0-6.25C249.92,345.09,247.17,345.32,244.14,345.48Zm4.45-3.22c4.32-4.31,4.32-4.31,1-7.64h-5.5v7.64Z" transform="translate(-0.46 -0.29)"/><path class="cls-8" d="M163.08,355.76v9.44h-2.73V338.68c1.62-.66,2.79-.47,3,1.72a9,9,0,0,1,6.67-2.86,11.35,11.35,0,0,1,6.49,2.08,11.53,11.53,0,0,1,3.72,6.36,10,10,0,0,1-2.25,9.27c-1.38,1.67-3,3.42-5.81,3.16C169.23,358.12,166,359,163.08,355.76Zm.09-3.94c1.71,2.16,3.66,3.89,6.29,4.29a6.35,6.35,0,0,0,3.95-.81c4.09-2.52,4-6.54,3.57-10.49-4-5.35-10-5.41-13.81.15Z" transform="translate(-0.46 -0.29)"/><path class="cls-9" d="M135.11,358.23h-3.54c-1.11-2.31-2.25-4.66-3.36-7a2.9,2.9,0,0,0-3.05-1.85c-2.82.11-5.64,0-8.56,0-1.14,2.5-2.17,5.08-3.47,7.51-.75,1.41-2.09,2-4,1,3.14-8.78,8.06-16.79,11.58-25.42.21-.52.85-.87,1.68-1.66Zm-9.81-12a14.61,14.61,0,0,0-3.65-8l-3.71,8Z" transform="translate(-0.46 -0.29)"/><path class="cls-10" d="M300.28,341.24c.41-2.74,1.5-3.22,3.38-2.66v19.57c-2.23,0-2.23,0-3.81-2.08l-2.58,2.29c-1.87,0-3.86,0-5.84,0-4.45,0-8.69-4.65-8.54-8.62,0-1,0-2,0-3a6.05,6.05,0,0,1,1.05-4.07c1.34-1.77,2.88-3.54,4.73-4.13C292.56,337.32,296.67,336.92,300.28,341.24Zm-7.45-.93c-1.49,1.39-3.66.91-5.06,2.57-1.73,2.06-1.78,4.27-2,6.7-.16,2.16,1.76,3,2.55,4.41.71,1.29,3.38,2,5.22,2.05,3.19.1,7.9-4.93,7.17-7.59-.59-2.18-1-4.76-3.38-6C295.88,341.64,294.32,341,292.83,340.31Z" transform="translate(-0.46 -0.29)"/><path class="cls-11" d="M212.18,348.33H195.36c-.89,2.25.31,3.91,1.49,5.22,2.35,2.61,5.68,1.67,9.27,1.87l4-4.21,1.63,1.37c0,.19.12.4.09.41-1.37.8-1.65,2.5-3,3.42-1.75,1.22-3.33,2.36-5.69,2a44.9,44.9,0,0,0-6.11-.05,5.54,5.54,0,0,0-1.2-1.6c-4.53-3.14-4.16-7.85-3.72-12.36a7.29,7.29,0,0,1,2.74-4.26c5.7-4.63,12.92-3.16,16.4,2.94C212.39,344.91,211.61,346.48,212.18,348.33ZM209.39,345a41.91,41.91,0,0,0-4.37-3.55,11.16,11.16,0,0,0-3.51-1,2.57,2.57,0,0,0-1.32.35c-3.09,1.3-3.95,2.55-3.77,5.67C200.61,345.75,205.07,347.63,209.39,345Z" transform="translate(-0.46 -0.29)"/><path class="cls-11" d="M419.8,355.41l4.08-4.13,1.76,1.56a17.23,17.23,0,0,0-1.95,2c-1.78,2.47-3.42,3.51-5.93,3.54-2.16,0-4.32,0-7,0-.76-.85-1.7-2-2.74-3.05a7.24,7.24,0,0,1-2.43-6,8.65,8.65,0,0,0,0-2.49c-.6-2.95,1.21-5.2,3-6.68,5.67-4.83,13-3,16.37,2.95,1.06,1.86.19,3.4.83,5.27H408.87c-.71,2.21.35,3.89,1.58,5.21C412.83,356.16,416.14,355.23,419.8,355.41Zm-9.93-9c3.42,0,6.84.07,10.25-.06a8,8,0,0,0,2.59-1.15c-2.36-3.07-5.09-5.24-8.82-4.42C410.91,341.41,409.91,343.27,409.87,346.39Z" transform="translate(-0.46 -0.29)"/><path class="cls-10" d="M394.67,358.24h-2.9v-14l-3.84-3.84c-3.44.67-3.44.67-7.23,4.46v13.3h-2.76V330.46c1.78-.21,2.64.79,2.72,2.39.13,2.45,0,4.91,0,7.4a37.41,37.41,0,0,1,5.48-2.75c3.68-1.14,8.37,2.75,8.47,7C394.75,348.93,394.67,353.41,394.67,358.24Z" transform="translate(-0.46 -0.29)"/><path class="cls-12" d="M331,344.15l-3.65-3.75c-3.37-.12-5.22,2.24-7.44,4.42v13.34h-3c-.22-6.32,0-12.86-.11-19.46,1.63-.52,3-.83,3.22,1.47.23-.06.52-.05.69-.19,5-4.16,9.67-3.35,12.32,2.18a5.61,5.61,0,0,1,.72,2.18c.06,4.61,0,9.22,0,13.92H331Z" transform="translate(-0.46 -0.29)"/><path class="cls-10" d="M366,343.09c-2,.43-3.35.49-5-.85-3.35-2.68-5.79-2.44-9.79.25-1.61,1.08-3.13,5.6-2.33,7.94a8,8,0,0,0,2.52,3.84c1.41,1,3.33,1.34,5,2,1.38-1.78,4.4.17,5.49-2.44.28-.67,1.07-1.12,2.12-2.17.82,1,1.41,1.66,2.06,2.44-1.95,3.06-4.34,4.54-7.72,4.31-1.15-.08-2.32,0-3.48,0a9.26,9.26,0,0,1-9.11-9.05c-.1-3,.24-5.65,2.51-7.95,4.32-4.36,7.83-5,13.64-2.32C363.68,339.86,365.23,340.79,366,343.09Z" transform="translate(-0.46 -0.29)"/><path class="cls-2" d="M70.17,355.38h9.66c.25.28.45.4.45.53,0,.66,0,1.32,0,2.21H67.5v-26.6h2.67Z" transform="translate(-0.46 -0.29)"/><path class="cls-13" d="M148,358.27h-2.66V330.52H148Z" transform="translate(-0.46 -0.29)"/><path class="cls-13" d="M269.08,330.52h2.67v27.75h-2.67Z" transform="translate(-0.46 -0.29)"/><path class="cls-14" d="M93.3,340.31c.17-1,.37-2,.5-2.95a1.27,1.27,0,0,0-.18-.92c-.18-.16-.61-.07-1.14-.11v-5.76h3.67c0,3.34,1,6.9-1.48,9.9Z" transform="translate(-0.46 -0.29)"/><path class="cls-1" d="M250.43,34a38.58,38.58,0,0,1,2.43,3.67q31.42,62.78,62.83,125.56a7.25,7.25,0,0,1-.12,7.5c-3,5.37-5.72,10.91-8.51,16.41q-16.43,32.34-32.8,64.7c-7.49,14.84-14.88,29.74-22.3,44.61a10.67,10.67,0,0,0-.41,1.29c-4.28-8.56-8.43-16.83-12.57-25.12-7.76-15.56-15.09-31.36-23.39-46.64-10.22-18.84-19.11-38.33-29.21-57.22a7.39,7.39,0,0,1-.2-7.49Q217.13,99.51,248,37.73A41.68,41.68,0,0,1,250.43,34Z" transform="translate(-0.46 -0.29)"/><path class="cls-1" d="M448.56,300.51H389.68q-12-24.21-24-48.41-20.94-41.94-42-83.84a6.82,6.82,0,0,0-1-1.17c9.73-19.44,19.46-38.85,29.46-58.82,1.09,2,1.89,3.3,2.59,4.69,16.11,32.23,31.86,64.64,48.42,96.63,13.18,25.44,25.82,51.14,38.7,76.73,2.08,4.13,4.25,8.22,6.32,12.35A6.84,6.84,0,0,1,448.56,300.51Z" transform="translate(-0.46 -0.29)"/><path class="cls-1" d="M111.23,300.51H53.35A21.69,21.69,0,0,1,54.43,297q43.83-87.24,87.7-174.47c2.26-4.5,4.34-9.08,6.84-14.34.63,1.22.92,1.8,1.21,2.37q13.4,26.35,26.78,52.7c1.55,3.06,1.52,3.05-.18,6.45Q145,233,113.23,296.35C112.54,297.72,111.9,299.12,111.23,300.51Z" transform="translate(-0.46 -0.29)"/><path class="cls-1" d="M247,300.51H117.22a21.71,21.71,0,0,1,1.09-3.54c8.92-17.91,17.52-36,27-53.63,6.21-11.55,12-23.27,17.85-35s11.7-23.08,17.56-34.62c.33-.64.6-1.32,1.15-2.51a14.48,14.48,0,0,1,1.22,1.68c10.72,21.49,21.07,43.17,32.3,64.39,5.19,9.82,10.1,19.78,15.3,29.59s10,19.8,14.83,29.75C246.1,297.84,247.34,298.9,247,300.51Z" transform="translate(-0.46 -0.29)"/><path class="cls-1" d="M383.69,300.51H255.94A22.71,22.71,0,0,1,257,297c13.26-26.55,26.18-53.27,40-79.53,7.46-14.17,14.49-28.54,21.83-42.76a12.13,12.13,0,0,1,1.39-1.82c8.5,16.79,17,33.49,25.44,50.28q18.75,37.53,37.3,75.17A16.17,16.17,0,0,1,383.69,300.51Z" transform="translate(-0.46 -0.29)"/><path class="cls-15" d="M244.14,345.48c3-.16,5.78-.39,8.28,1.77a4,4,0,0,1,0,6.25c-2.51,2.16-5.25,1.94-8.29,1.77Z" transform="translate(-0.46 -0.29)"/><path class="cls-16" d="M248.59,342.26h-4.51v-7.64h5.5C252.91,338,252.91,338,248.59,342.26Z" transform="translate(-0.46 -0.29)"/><path class="cls-17" d="M163.17,351.82V345c3.83-5.56,9.76-5.5,13.81-.15.47,3.95.52,8-3.57,10.49a6.35,6.35,0,0,1-3.95.81C166.83,355.71,164.88,354,163.17,351.82Z" transform="translate(-0.46 -0.29)"/><path class="cls-18" d="M125.3,346.26h-7.36l3.71-8A14.61,14.61,0,0,1,125.3,346.26Z" transform="translate(-0.46 -0.29)"/><path class="cls-17" d="M292.83,340.31c1.49.69,3.05,1.33,4.54,2.12,2.37,1.26,2.79,3.84,3.38,6,.73,2.66-4,7.69-7.17,7.59-1.84-.05-4.51-.76-5.22-2.05-.79-1.44-2.71-2.25-2.55-4.41.18-2.43.23-4.64,2-6.7C289.17,341.22,291.34,341.7,292.83,340.31Z" transform="translate(-0.46 -0.29)"/><path class="cls-19" d="M209.39,345c-4.32,2.63-8.78.75-13,1.45-.18-3.12.68-4.37,3.77-5.67a2.57,2.57,0,0,1,1.32-.35,11.16,11.16,0,0,1,3.51,1A41.91,41.91,0,0,1,209.39,345Z" transform="translate(-0.46 -0.29)"/><path class="cls-19" d="M409.87,346.39c0-3.12,1-5,4-5.63,3.73-.82,6.46,1.35,8.82,4.42a8,8,0,0,1-2.59,1.15C416.71,346.46,413.29,346.39,409.87,346.39Z" transform="translate(-0.46 -0.29)"/></svg>