<?xml version="1.0" encoding="UTF-8" standalone="no"?>
<svg
   xmlns:dc="http://purl.org/dc/elements/1.1/"
   xmlns:cc="http://creativecommons.org/ns#"
   xmlns:rdf="http://www.w3.org/1999/02/22-rdf-syntax-ns#"
   xmlns:svg="http://www.w3.org/2000/svg"
   xmlns="http://www.w3.org/2000/svg"
   xmlns:sodipodi="http://sodipodi.sourceforge.net/DTD/sodipodi-0.dtd"
   xmlns:inkscape="http://www.inkscape.org/namespaces/inkscape"
   width="108.496mm"
   height="91.558998mm"
   viewBox="0 0 108.496 91.558998"
   version="1.1"
   id="svg8"
   inkscape:version="1.0.1 (3bc2e813f5, 2020-09-07)"
   sodipodi:docname="logo-valrige.svg">
  <defs
     id="defs2" />
  <sodipodi:namedview
     id="base"
     pagecolor="#ffffff"
     bordercolor="#666666"
     borderopacity="1.0"
     inkscape:pageopacity="0.0"
     inkscape:pageshadow="2"
     inkscape:zoom="0.98994949"
     inkscape:cx="310.47865"
     inkscape:cy="1.1975959"
     inkscape:document-units="mm"
     inkscape:current-layer="layer1"
     inkscape:document-rotation="0"
     showgrid="false"
     inkscape:window-width="1920"
     inkscape:window-height="1001"
     inkscape:window-x="-9"
     inkscape:window-y="-9"
     inkscape:window-maximized="1" />
  <metadata
     id="metadata5">
    <rdf:RDF>
      <cc:Work
         rdf:about="">
        <dc:format>image/svg+xml</dc:format>
        <dc:type
           rdf:resource="http://purl.org/dc/dcmitype/StillImage" />
        <dc:title></dc:title>
      </cc:Work>
    </rdf:RDF>
  </metadata>
  <g
     inkscape:label="Calque 1"
     inkscape:groupmode="layer"
     id="layer1">
    <g
       id="g893"
       transform="translate(-80.840489,-105.48347)">
      <path
         style="fill:#e072c4;fill-opacity:1;stroke-width:0.696767;stroke-linecap:round"
         d="m 617.03316,743.44856 c -3.15268,-1.12661 -5.23863,-2.71202 -6.52578,-4.95986 -1.10439,-1.92868 -1.24345,-2.7646 -1.24345,-7.47483 0,-4.56187 0.18166,-5.73395 1.2994,-8.38366 2.4763,-5.8703 7.56407,-12.64369 19.78955,-26.34603 l 7.32797,-8.21319 0.32193,-5.42387 c 0.17706,-2.98313 0.44567,-6.90122 0.59691,-8.70687 0.20467,-2.44337 0.0847,-3.53962 -0.4689,-4.28644 -0.71807,-0.96862 -0.7788,-0.97186 -1.74948,-0.0934 -0.55308,0.50053 -2.05343,3.25754 -3.33411,6.12669 -1.28068,2.86916 -2.9093,6.25578 -3.61915,7.52584 -1.89698,3.39406 -5.7105,7.41593 -8.03152,8.47029 -4.60556,2.09217 -11.72985,0.48575 -14.50297,-3.27019 -1.98704,-2.69126 -4.26731,-7.63805 -4.70221,-10.20089 -0.52952,-3.1204 -0.77754,-3.76682 -1.44525,-3.76682 -0.94326,0 -3.92805,3.36732 -6.5645,7.4058 -3.31044,5.07088 -6.52404,8.4901 -9.19457,9.78288 -1.85696,0.89894 -2.9409,1.06843 -5.79985,0.90688 -4.99553,-0.28227 -5.6506,-1.03737 -6.01201,-6.93008 -0.53735,-8.76165 1.32238,-40.27759 2.50742,-42.49185 1.29805,-2.42544 9.02857,-7.97124 10.14749,-7.27971 0.81001,0.50062 0.2573,10.71373 -0.77727,14.36242 -1.32822,4.68434 -2.35177,13.92488 -2.66276,24.03905 -0.32103,10.44099 -0.15165,12.07551 1.29039,12.45261 3.3158,0.8671 9.71847,-5.83487 14.37117,-15.04296 2.43011,-4.8094 3.05229,-6.40567 4.61797,-11.84789 2.4974,-8.68079 6.8776,-15.4275 12.41814,-19.12733 4.11913,-2.75065 7.40735,-3.77073 11.26864,-3.49578 3.48026,0.24782 5.50371,1.06352 9.10042,3.66856 1.34984,0.97768 2.72587,1.77759 3.05784,1.77759 0.70771,0 4.17805,-2.28666 7.28034,-4.79714 2.20427,-1.78377 4.26207,-2.27206 4.94158,-1.17258 0.69882,1.13072 0.24435,6.74501 -1.05565,13.04079 -1.87777,9.09387 -2.78878,15.61001 -2.78878,19.94719 0,3.40409 0.0992,3.7914 0.97127,3.7914 1.84492,0 10.3627,-9.90194 15.64966,-18.19273 1.50223,-2.35574 3.50433,-5.49304 4.44911,-6.97176 4.62324,-7.23612 11.73773,-11.19597 20.09368,-11.18392 8.13519,0.0117 11.70763,4.61212 10.35441,13.33384 -0.68423,4.40999 -2.17122,7.01203 -5.93,10.3768 -3.94491,3.53137 -9.07449,5.91835 -15.41963,7.1753 -2.84197,0.56299 -5.4687,1.2691 -5.83717,1.56915 -2.40246,1.95634 4.87251,14.59982 9.50464,16.51851 0.98424,0.40768 3.02929,0.55422 5.74534,0.41166 9.35451,-0.49099 14.69915,-5.47856 24.08087,-22.47204 3.67575,-6.65803 5.48852,-9.21289 4.77326,-6.72725 -1.50028,5.21363 -8.12585,17.58584 -12.78664,23.87703 -3.86686,5.21954 -10.76545,9.78162 -16.63344,10.99981 -7.49019,1.55496 -14.41723,-0.70183 -18.6481,-6.07544 -3.09598,-3.93219 -4.18884,-7.22073 -4.76535,-14.33961 -0.26776,-3.30629 -0.72759,-6.4613 -1.02185,-7.01114 -0.50393,-0.94159 -0.66708,-0.8716 -2.80738,1.2044 -1.2498,1.21225 -4.6359,5.19136 -7.52467,8.84247 l -5.25232,6.63838 -0.49982,11.03929 c -1.54098,34.03444 -3.74154,43.84066 -10.90243,48.58384 -1.34611,0.89163 -3.57862,1.95706 -4.96112,2.36762 -3.06836,0.9112 -10.0026,0.93849 -12.49127,0.0491 z m 12.39139,-3.52925 c 3.52445,-2.68822 5.10063,-8.09838 6.60008,-22.6544 0.76608,-7.43673 1.03717,-20.3119 0.45938,-21.81761 -0.49961,-1.30197 -1.36663,-0.93702 -3.80159,1.60019 -2.85237,2.97215 -6.01913,7.15699 -9.65063,12.75318 -6.88198,10.60523 -8.08177,15.84325 -5.63937,24.62021 0.75785,2.7234 3.13977,5.95089 4.97588,6.74227 1.79168,0.77223 5.20096,0.17126 7.05625,-1.24384 z m -6.43017,-53.8873 c 1.76441,-0.66408 4.91595,-3.63826 6.54441,-6.17612 3.1796,-4.95518 9.59119,-22.17077 10.11169,-27.15063 0.41896,-4.00843 -0.93323,-6.47894 -4.97648,-9.09222 -4.8953,-3.16398 -8.53046,-3.77019 -12.31111,-2.05302 -3.05971,1.38972 -5.49746,3.76523 -8.02441,7.81956 -3.61093,5.79349 -3.97197,7.16103 -4.01743,15.21676 -0.0474,8.40758 0.7001,12.65174 2.94512,16.72087 2.55812,4.63663 5.78312,6.19964 9.72821,4.7148 z m 54.65023,-19.86731 c 9.14952,-3.0955 13.56943,-8.22137 14.09541,-16.34677 0.65812,-10.16677 -6.11475,-13.65123 -12.9223,-6.64817 -2.38394,2.45241 -3.92463,5.29972 -5.62461,10.39471 -2.00981,6.02356 -2.85167,11.00544 -2.12809,12.5935 0.70943,1.55705 1.99338,1.55836 6.57959,0.007 z"
         id="path869"
         transform="scale(0.26458333)" />
      <path
         style="fill:#4472c4;fill-opacity:1;stroke-width:0.696767;stroke-linecap:round"
         d="m 649.46188,635.5584 c -4.23235,0.95475 -7.11177,5.24295 -11.13042,6.347 -4.70598,-2.88978 -9.95951,-6.53013 -15.79744,-4.96198 -10.47977,2.30028 -17.00168,12.17746 -20.04521,21.81495 -3.00114,9.56893 -7.23111,19.45627 -15.09705,26.02918 -1.05653,0.87707 -4.17129,2.67736 -4.32965,0.0917 -0.55694,-12.62239 0.46869,-25.30246 2.96634,-37.6637 0.23834,-3.62308 1.42745,-7.50125 0.4232,-11.04262 -1.9885,-1.57794 -4.49674,0.96557 -6.23355,1.91278 -3.03302,2.01622 -5.73365,4.95979 -5.65989,8.83586 -1.50597,13.90144 -2.34852,27.96102 -1.56902,41.93417 0.12753,4.24829 5.45295,4.29215 8.58137,4.21719 7.45719,-1.02637 11.00983,-8.66614 15.26376,-13.9261 1.21461,-1.30104 2.36254,-3.4853 4.00904,-4.02286 1.26605,5.41423 3.30274,10.97636 7.24173,15.04773 5.24052,4.18406 13.65648,3.92647 17.93415,-1.54187 5.07464,-5.53223 6.77183,-13.25242 11.27248,-19.07057 1.59281,2.3162 0.27687,5.66988 0.5051,8.31883 -0.41754,3.46285 -0.0979,7.24519 -1.03722,10.49087 -9.19774,10.74762 -19.75752,20.71705 -26.38588,33.37099 -2.0608,4.56606 -1.0094,9.80125 -1.07132,14.65806 1.18035,5.69084 7.71146,8.53329 13.08661,8.20848 6.85617,0.28991 14.08816,-2.66417 17.4271,-8.9286 3.99566,-8.6002 4.13416,-18.38289 5.14391,-27.66038 0.83739,-8.94459 0.7579,-17.99136 1.8512,-26.88392 4.54352,-5.51001 8.76092,-11.54985 14.02278,-16.3183 1.90403,7.44788 0.6922,16.41263 6.74848,22.24802 6.00643,7.1901 16.99975,7.52051 24.74156,3.0982 11.28863,-5.83007 16.77366,-18.05008 22.00167,-28.93897 0.29619,-1.38477 2.23388,-3.68635 0.5988,-4.66801 -2.51012,1.98298 -3.53072,5.58291 -5.37888,8.19373 -4.51311,7.20459 -8.54327,15.81146 -16.55248,19.72456 -3.86044,1.40677 -8.62194,2.23042 -12.62987,0.73098 -4.43501,-3.35506 -7.5384,-8.43726 -9.02034,-13.75544 -0.58982,-2.29574 2.8028,-1.76851 4.05244,-2.53229 8.39589,-1.80085 17.28612,-5.32191 21.81496,-13.10337 1.73192,-4.22745 2.61106,-9.36199 0.97266,-13.74261 -1.78013,-4.06022 -6.27482,-5.74451 -10.45665,-5.33586 -7.91559,-0.32187 -15.40693,4.0725 -19.60331,10.68055 -6.33109,8.78469 -11.5663,18.86969 -20.38552,25.41564 -1.37281,-12.06504 4.32258,-23.89422 3.35304,-36.04785 -0.11783,-0.79867 -0.85463,-1.26319 -1.62868,-1.22422 z m 36.5766,4.64729 c 5.09957,0.56341 5.51174,6.80855 4.98981,10.81843 -0.61385,7.71899 -7.48398,13.10593 -14.54187,14.91778 -1.61861,0.37124 -5.10807,1.98969 -5.17407,-0.98648 0.59512,-6.68387 2.554,-13.58758 6.20593,-19.15147 2.09607,-2.57188 4.73708,-5.96833 8.5202,-5.59826 z m -59.34646,1.03877 c 4.45167,0.36785 8.73682,2.73567 11.41749,6.31739 2.61445,5.08281 -0.77479,10.6682 -2.02776,15.65194 -3.05504,7.87519 -5.26083,17.20615 -12.85621,22.04037 -4.00857,2.2544 -8.22099,-1.07311 -9.74738,-4.76962 -3.49263,-6.8273 -2.49182,-14.94787 -2.28271,-22.32496 0.94397,-5.76329 4.63148,-10.85152 9.01739,-14.60874 1.85823,-1.40012 4.12534,-2.34371 6.47918,-2.30638 z m 8.88323,54.00666 c 1.1457,3.66342 0.4287,7.90809 0.54371,11.78911 -0.5532,9.60945 -0.94672,19.50604 -4.2144,28.65448 -1.47189,3.56681 -5.55958,6.2724 -9.37843,4.95704 -7.21659,-5.62944 -6.88125,-16.50555 -2.90419,-23.96153 4.30286,-7.61647 9.27071,-15.0882 15.5015,-21.19544 0.14158,-0.0822 0.28085,-0.23138 0.45181,-0.24366 z"
         id="path871"
         transform="scale(0.26458333)" />
      <path
         style="fill:#4472c4;fill-opacity:1;stroke-width:0.696767;stroke-linecap:round"
         d="m 466.32833,596.15357 c -6.33867,0.72543 -9.24691,7.52455 -10.99133,12.86761 -5.59888,18.65771 -5.33514,38.37909 -7.66493,57.52543 -1.15258,6.24231 -5.39176,11.28367 -9.29162,16.06971 -1.38953,1.44136 -4.4984,4.79731 -6.23256,2.23141 -0.50045,-9.25369 -0.48572,-18.70024 0.28607,-27.87587 1.55672,-6.58339 3.10047,-13.46966 2.01143,-20.23462 -1.6416,-1.73481 -3.82115,1.19565 -5.35039,1.88644 -2.17199,1.52905 -5.00927,4.53951 -7.74213,2.27156 -4.52741,-3.53029 -10.59331,-5.45812 -16.18711,-3.41617 -11.92753,3.89558 -18.87507,16.82519 -18.90361,28.90246 -0.30729,8.07217 -0.4498,17.53746 5.94525,23.52288 5.60294,4.42646 15.31114,4.59533 19.37047,-2.02227 3.35849,-4.04078 4.89718,-9.47972 8.52217,-13.204 1.75764,5.01214 0.0673,10.68269 1.87924,15.6909 2.41873,3.60698 7.59586,3.14282 11.25472,2.11304 6.27853,-2.9788 9.01424,-10.06509 14.08985,-14.30984 1.76044,4.34005 0.86789,9.40079 2.76806,13.64692 5.44689,2.44416 12.86112,1.96391 16.68428,-3.1439 6.97674,-8.53064 11.62357,-18.69838 16.17034,-28.65716 1.00216,-1.12003 -0.51922,-2.73903 -1.27355,-1.16404 -5.52526,8.55381 -9.18649,18.56331 -16.61523,25.75198 -1.48072,1.90689 -5.4303,1.83474 -5.45029,-1.0792 -0.64541,-10.12425 -0.37045,-20.28965 -0.61852,-30.42986 6.36398,-14.69498 12.77859,-30.00046 12.59238,-46.31609 -0.055,-3.51333 0.93516,-8.91758 -3.3846,-10.36787 -0.59684,-0.21158 -1.23733,-0.28841 -1.86839,-0.25945 z m 1.31794,4.14222 c 2.04695,0.98488 0.92597,4.05843 1.34183,5.8705 0.4973,10.8957 -2.62231,21.57285 -6.75464,31.47851 -0.31739,0.76704 -1.78798,3.51657 -1.97887,1.3278 0.0876,-11.069 0.87454,-22.27954 3.81175,-32.9878 0.82207,-1.89449 1.3072,-5.04373 3.57993,-5.68901 z m -56.92269,41.23474 c 4.71452,0.20851 9.18405,3.26271 11.71244,7.21608 1.5694,5.18826 -0.90735,10.5009 -2.40757,15.43205 -3.07569,7.45956 -5.98977,15.56853 -12.10943,21.11397 -3.99474,2.21287 -8.43693,-1.59227 -9.82926,-5.28456 -2.89792,-7.19336 -3.26749,-15.36219 -1.67109,-22.84582 1.95697,-6.2454 5.89351,-12.42412 11.99162,-15.29138 0.74852,-0.22582 1.53225,-0.33127 2.31329,-0.34034 z"
         id="path873"
         transform="scale(0.26458333)" />
      <path
         style="fill:#4472c4;fill-opacity:1;stroke-width:0.696767;stroke-linecap:round"
         d="m 468.4315,398.58687 c -4.25237,0.74657 -6.01583,5.55246 -8.86195,8.2595 -36.64277,45.77184 -72.86624,91.88645 -108.44399,138.4918 -1.83747,3.03602 -5.09676,5.64798 -5.62094,9.28373 1.14633,4.01414 6.38719,3.37147 9.61322,3.78314 70.86498,0.45497 141.73456,0.29477 212.60049,0.033 6.905,-0.293 13.95181,0.33825 20.78026,-0.66434 2.58551,-0.55527 4.57493,-3.8742 2.29355,-5.95635 -22.50588,-30.61929 -46.18209,-60.35953 -69.52157,-90.34362 -16.30764,-20.5266 -32.20054,-41.40924 -49.20094,-61.36964 -0.9642,-0.92112 -2.27485,-1.59894 -3.63813,-1.51721 z m 2.02031,15.66329 c 13.55994,15.23912 25.59786,31.76644 38.02409,47.92795 4.57,6.50174 10.0688,12.50642 13.56274,19.65658 -11.56454,-4.94541 -22.7514,-10.95998 -34.43989,-15.5676 -6.64075,3.25712 -12.29879,8.67289 -19.04887,11.53389 -6.66064,-3.2385 -12.34044,-8.39564 -19.02717,-11.53882 -8.31697,3.29 -16.19209,7.73651 -24.40741,11.32058 -3.21615,1.39146 -6.49708,3.19386 -9.72569,4.25984 0.77171,-3.98403 4.36974,-6.86685 6.41608,-10.2825 14.81897,-19.5499 29.6096,-39.16522 45.53976,-57.82838 1.35275,-2.31394 1.71289,-0.56756 3.10636,0.51846 z"
         id="path875"
         transform="scale(0.26458333)" />
      <path
         style="fill:#4472c4;fill-opacity:1;stroke-width:0.696767;stroke-linecap:round"
         d="m 585.63386,456.16754 c -4.95808,0.97965 -7.74353,5.97305 -11.00112,9.37732 -4.93743,6.41321 -10.59471,12.37532 -14.7923,19.30746 -0.30891,2.4216 2.8886,3.91743 3.79769,5.9875 14.33368,18.75542 29.35313,37.01954 42.84985,56.39633 2.22197,3.42214 0.90405,7.78932 1.65334,11.5763 16.44899,0.0769 32.9938,0.0942 49.46886,-0.40445 2.98663,0.12686 7.19784,-0.91677 7.16972,-4.58712 -2.33827,-5.27784 -6.74777,-9.41656 -9.96149,-14.18023 -20.76145,-26.95242 -41.51448,-53.93385 -63.25089,-80.11021 -1.51994,-1.65669 -3.52644,-3.47472 -5.93366,-3.3629 z"
         id="path877"
         transform="scale(0.26458333)" />
      <path
         style="fill:#4472c4;fill-opacity:1;stroke-width:0.696767;stroke-linecap:round"
         d="m 516.79847,590.44088 c -6.04864,1.53791 -5.98214,10.5658 -12.33787,11.71047 -9.96119,3.83024 -21.25868,8.75998 -25.71055,19.25111 -1.17751,3.71159 -2.87275,8.46798 -0.46167,12.00838 2.55221,2.02843 5.75833,-1.13817 6.90238,-3.37178 1.27769,-5.08787 1.92628,-10.66962 5.92419,-14.46547 4.09173,-4.16015 9.27033,-8.21673 15.26139,-8.66248 1.32366,3.62503 -0.0251,7.8441 -0.0707,11.66908 -1.90888,19.86133 -1.95953,39.92235 -4.77686,59.65913 -0.72924,5.11959 -4.35155,9.65678 -4.07711,14.90665 0.93602,4.07617 6.80092,4.74058 9.61914,2.35078 6.54465,-5.31725 6.20772,-14.50082 6.87736,-22.12386 1.1192,-22.89571 1.4058,-45.84694 4.32804,-68.59356 9.49475,0.19798 19.36067,3.03098 25.93448,10.19228 5.83208,5.31294 8.96684,13.1108 8.6219,20.97545 0.22848,8.15762 -2.38985,16.96929 -9.16151,21.97379 -4.93103,-0.17458 -9.22332,-4.13557 -14.37691,-3.47777 -3.6624,-0.0347 -9.20902,0.39838 -9.70792,5.02358 -0.86646,3.19554 1.70558,5.76191 4.62263,6.4486 5.23267,1.22562 10.70802,0.7496 15.98487,0.0503 4.50111,13.04211 6.20728,27.0144 11.94822,39.61889 1.98292,4.44858 7.02762,7.6756 11.89296,5.89914 4.43312,-1.35769 9.92757,-5.21077 8.74512,-10.4754 -3.61817,-0.2038 -8.4683,0.40789 -10.4754,-3.54047 -5.5819,-10.22307 -8.07205,-21.99403 -14.22993,-32.00033 -2.13285,-2.44374 1.73515,-4.366 2.93674,-6.19804 7.34508,-6.7448 12.52234,-16.15311 12.61557,-26.2785 0.52296,-11.42012 -5.29558,-23.39522 -15.91632,-28.36542 -8.93146,-4.52677 -19.1528,-4.94254 -28.91069,-6.03724 -0.55543,-2.55096 0.22952,-5.7923 -1.28044,-7.9954 -0.21999,-0.11801 -0.47316,-0.16323 -0.72112,-0.15192 z m 12.06462,66.77661 c 2.73418,0.0689 6.62957,1.02253 7.23679,4.08303 -2.91582,3.19329 -8.67976,1.79264 -11.07123,-1.39882 -1.24263,-2.11985 2.59206,-2.81606 3.83444,-2.68421 z"
         id="path879"
         transform="scale(0.26458333)" />
      <path
         style="fill:#4472c4;fill-opacity:1;stroke-width:0.696767;stroke-linecap:round"
         d="m 364.46175,574.38498 c -2.56205,0.57851 -4.97515,2.9028 -5.72848,5.41872 -0.77884,6.73322 5.65836,11.04898 8.91709,16.11717 6.44972,8.35737 4.86748,19.408 5.08201,29.26374 -0.26353,14.47953 -4.2009,28.74378 -10.01411,41.92088 -3.52236,7.00434 -7.50879,14.91068 -15.01775,18.32327 -3.32242,1.50561 -7.25769,-0.13965 -8.73032,-3.48029 -4.36508,-8.447 -6.85802,-17.85003 -7.84841,-27.28497 -0.57869,-7.27781 4.90029,-13.12146 7.67183,-19.44346 4.48812,-9.73165 7.72939,-20.95019 5.23622,-31.65704 -0.80465,-3.96611 -3.99728,-7.41082 -8.24892,-7.3453 -7.56578,-0.0806 -12.68735,6.76033 -15.43459,13.04394 -3.6106,6.31001 -4.01148,13.63444 -4.28573,20.71808 -0.53597,9.90047 -0.59859,19.818 -0.59223,29.7306 -3.21693,3.90687 -7.93553,6.94558 -9.95947,11.69765 -0.0339,2.74464 3.9823,2.49049 5.18295,0.6491 2.14416,-1.66039 3.46636,-4.79777 5.72354,-5.98792 3.43261,5.9637 3.86493,13.24744 7.45185,19.2077 3.20872,6.7351 10.56573,11.20061 18.06535,10.31657 9.36845,-0.0136 16.7085,-7.38644 21.92123,-14.4266 11.13469,-15.94791 16.52888,-35.30302 18.58254,-54.46205 0.5417,-12.34252 1.27071,-24.9579 -1.49846,-37.09746 -1.39215,-6.66075 -5.60279,-13.82848 -12.92581,-14.87805 -1.17023,-0.2003 -2.36096,-0.36603 -3.55033,-0.34428 z m -28.36615,32.08024 c 1.9955,1.80873 0.59742,5.22127 0.93123,7.60278 -0.56215,8.80001 -1.65506,18.02806 -5.94254,25.89403 -1.35184,-3.51885 -0.55481,-7.68984 -0.62838,-11.44609 0.65275,-7.22585 1.1054,-14.98509 4.74495,-21.42628 0.23077,-0.26084 0.50651,-0.6343 0.89474,-0.62444 z"
         id="path881"
         transform="scale(0.26458333)" />
      <path
         style="fill:#4472c4;fill-opacity:1;stroke-width:0.696767;stroke-linecap:round"
         d="m 586.27112,607.20212 c -5.04612,0.42621 -9.07605,5.55937 -7.79514,10.59476 0.10712,2.16798 1.07303,5.95569 4.04258,4.82683 5.54798,-1.92341 7.71767,-8.92003 6.39829,-14.19935 -0.47231,-0.94778 -1.66882,-1.26069 -2.64573,-1.22224 z"
         id="path883"
         transform="scale(0.26458333)" />
    </g>
  </g>
</svg>
