<?xml version="1.0" encoding="UTF-8" standalone="no"?>
<svg
   xmlns:dc="http://purl.org/dc/elements/1.1/"
   xmlns:cc="http://creativecommons.org/ns#"
   xmlns:rdf="http://www.w3.org/1999/02/22-rdf-syntax-ns#"
   xmlns:svg="http://www.w3.org/2000/svg"
   xmlns="http://www.w3.org/2000/svg"
   id="svg8"
   version="1.1"
   viewBox="0 0 1000 1000"
   height="3779.5276"
   width="3779.5276">
  <defs
     id="defs2" />
  <metadata
     id="metadata5">
    <rdf:RDF>
      <cc:Work
         rdf:about="">
        <dc:format>image/svg+xml</dc:format>
        <dc:type
           rdf:resource="http://purl.org/dc/dcmitype/StillImage" />
        <dc:title></dc:title>
      </cc:Work>
    </rdf:RDF>
  </metadata>
  <g
     transform="translate(0,703.00001)"
     id="layer1">
    <rect
       y="8.6204157"
       x="8.6162252"
       height="982.76782"
       width="982.80145"
       id="rect839"
       style="fill:#ffffff;fill-opacity:1;stroke:#88a0ba;stroke-width:17.22986031;stroke-linecap:square;stroke-linejoin:miter;stroke-miterlimit:4;stroke-dasharray:none;stroke-opacity:1"
       transform="translate(0,-703.00001)" />
  </g>
  <g
     id="layer3">
    <g
       transform="matrix(1.1850482,0,0,1.1850482,-83.734165,-112.75367)"
       id="g938">
      <path
         transform="translate(0,703)"
         style="fill:#ffffff;fill-opacity:1;stroke:none;stroke-width:0.26458332px;stroke-linecap:butt;stroke-linejoin:miter;stroke-opacity:1"
         d="m 552.98064,-354.60311 27.52876,34.74503 30.736,-26.99421 -30.20146,-57.73021 z"
         id="path918" />
      <path
         transform="translate(0,703)"
         style="fill:#7c8ea2;fill-opacity:1;stroke:none;stroke-width:0.26458332px;stroke-linecap:butt;stroke-linejoin:miter;stroke-opacity:1"
         d="m 596.89659,-303.14472 0.85171,56.5185 2.53905,12.02713 -6.90422,22.15448 -57.0066,-113.46044 14.19868,-30.16804 z"
         id="path920" />
      <path
         transform="translate(0,703)"
         style="fill:#879fb9;fill-opacity:1;stroke:none;stroke-width:0.26458332px;stroke-linecap:butt;stroke-linejoin:miter;stroke-opacity:1"
         d="m 593.4226,-214.02335 86.57452,-0.0433 -68.75172,-132.78569 -30.736,26.99421 19.77795,85.25899 -6.86475,20.57575"
         id="path922" />
      <path
         style="fill:none;stroke:#000000;stroke-width:15;stroke-linecap:butt;stroke-linejoin:miter;stroke-miterlimit:4;stroke-dasharray:none;stroke-opacity:1"
         d="m 285.97838,491.11881 51.31576,-110.11503 17.10526,4.81084 88.73347,-175.86334 141.65286,278.49484 -66.8174,32.07234 -123.4785,-13.36347"
         id="path900" />
      <path
         style="fill:none;stroke:#000000;stroke-width:15;stroke-linecap:butt;stroke-linejoin:miter;stroke-miterlimit:4;stroke-dasharray:none;stroke-opacity:1"
         d="M 528.65911,375.65838 581.57847,282.6486 688.48631,488.98066"
         id="path902" />
      <path
         style="fill:#ffffff;fill-opacity:1;stroke:none;stroke-width:0.28415596px;stroke-linecap:butt;stroke-linejoin:miter;stroke-opacity:1"
         d="m 443.04504,226.66098 1.74813,87.38211 h -45.74284 z"
         id="path904" />
      <path
         style="fill:#cecfd0;fill-opacity:1;stroke:#000000;stroke-width:0.27467847px;stroke-linecap:butt;stroke-linejoin:miter;stroke-opacity:1"
         d="m 444.67382,314.04684 27.76654,-29.9783 -29.39987,-57.41131"
         id="path906" />
      <path
         style="fill:#6f8399;fill-opacity:1;stroke-width:15.6426754;stroke-linecap:square;stroke-linejoin:miter;stroke-miterlimit:4;stroke-dasharray:none"
         d="m 510.22265,434.90713 c -34.53783,-23.50588 -61.21552,-41.68428 -61.20984,-41.87598 -0.11445,-0.19167 -1.2548,-19.65991 -2.40168,-41.7833 l -2.08523,-40.22432 14.03437,-13.8446 c 7.71889,-7.61456 14.16129,-13.83731 14.31639,-13.82838 0.24339,0.0141 98.93091,195.07733 98.75905,195.20435 -0.035,0.0258 -27.50619,-20.57131 -61.41306,-43.64777 z"
         id="path910" />
      <path
         style="fill:#88a0ba;fill-opacity:1;stroke:none;stroke-width:0.26458332px;stroke-linecap:butt;stroke-linejoin:miter;stroke-opacity:1"
         d="m 294.51432,490.62984 46.86717,-100.74479 16.67472,4.4958 40.99411,-80.33777 45.62351,0.004 4.33898,78.98407 61.41029,41.80081 -8.09276,3.87363 2.26788,43.84524 6.04761,6.42559 -0.37799,20.78869 -1.51191,2.64583 z"
         id="path912" />
      <path
         style="fill:#637488;fill-opacity:1;stroke:none;stroke-width:0.26458332px;stroke-linecap:butt;stroke-linejoin:miter;stroke-opacity:1"
         d="m 508.75593,512.41094 7.79577,0.47226 58.06659,-27.78125 -4.016,-8.12649 -60.17919,-42.1435 -8.09276,3.87363 2.26788,43.84524 6.04761,6.4256 -0.37799,20.78868 -1.51191,2.64583"
         id="path914" />
      <path
         style="fill:#8ccfb9;fill-opacity:1;stroke:none;stroke-width:0.26458332px;stroke-linecap:butt;stroke-linejoin:miter;stroke-opacity:1"
         d="m 294.51432,490.62984 -2.38874,4.7653 c 0,0 91.89823,68.42035 162.20181,70.31021 70.30354,1.8899 202.21725,-35.15177 226.78569,-71.05951 l 7.37323,-5.66518 -95.0637,-0.004 1.13394,3.02381 -74.93379,36.00224 -125.20461,-13.22917 0.0717,-7.61808 0.69419,-6.34564 z"
         id="path916" />
    </g>
    <flowRoot
       transform="scale(0.26458333)"
       style="font-style:normal;font-weight:normal;font-size:10.66666698px;line-height:40;font-family:sans-serif;letter-spacing:0px;word-spacing:0px;fill:#000000;fill-opacity:1;stroke:none"
       id="flowRoot940"
       xml:space="preserve"><flowRegion
         id="flowRegion942"><rect
           y="3100.7051"
           x="767.71594"
           height="177.78685"
           width="299.00516"
           id="rect944" /></flowRegion><flowPara
         id="flowPara946">B</flowPara></flowRoot>    <flowRoot
       transform="scale(0.26458333)"
       style="font-style:normal;font-weight:normal;font-size:10.66666698px;line-height:40;font-family:sans-serif;letter-spacing:0px;word-spacing:0px;fill:#000000;fill-opacity:1;stroke:none"
       id="flowRoot948"
       xml:space="preserve"><flowRegion
         id="flowRegion950"><rect
           y="2607.7507"
           x="727.30981"
           height="1729.3811"
           width="3644.6304"
           id="rect952" /></flowRegion><flowPara
         style="font-size:192.00000095px"
         id="flowPara954">BBrre</flowPara></flowRoot>    <flowRoot
       style="fill:black;fill-opacity:1;stroke:none;font-family:sans-serif;font-style:normal;font-weight:normal;font-size:10.66666667px;line-height:40;letter-spacing:0px;word-spacing:0px"
       id="flowRoot956"
       xml:space="preserve"><flowRegion
         id="flowRegion958"><rect
           y="2797.1543"
           x="659.12451"
           height="35.860416"
           width="40.406101"
           id="rect960" /></flowRegion><flowPara
         id="flowPara962" /></flowRoot>    <text
       id="text966"
       y="863.15796"
       x="94.078873"
       style="font-style:normal;font-variant:normal;font-weight:normal;font-stretch:normal;font-size:247.29719543px;line-height:40;font-family:'Javanese Text';-inkscape-font-specification:'Javanese Text';letter-spacing:0px;word-spacing:0px;fill:#000000;fill-opacity:1;stroke:none;stroke-width:0.26458332"
       xml:space="preserve"><tspan
         style="font-style:normal;font-variant:normal;font-weight:normal;font-stretch:normal;font-size:247.29719543px;font-family:'Javanese Text';-inkscape-font-specification:'Javanese Text';stroke-width:0.26458332"
         y="863.15796"
         x="94.078873"
         id="tspan964">Brégars</tspan></text>
  </g>
</svg>
